<?xml version="1.0" encoding="utf-8"?>
<!-- Generator: Adobe Illustrator 25.1.0, SVG Export Plug-In . SVG Version: 6.00 Build 0)  -->
<svg version="1.1" id="Laag_1" xmlns="http://www.w3.org/2000/svg" xmlns:xlink="http://www.w3.org/1999/xlink" x="0px" y="0px"
	 viewBox="0 0 50 7" style="enable-background:new 0 0 50 7;" xml:space="preserve">
<g>
	<path d="M7.04,0.25c-0.05-0.06-0.1-0.12-0.16-0.17C6.85,0.05,6.81,0.04,6.77,0.07c-0.03,0.02-0.04,0.06-0.03,0.1
		c0,0.01,0.01,0.02,0.01,0.03c0.19,0.49,0.29,1,0.29,1.52c0,0.1-0.01,0.19-0.01,0.29C7.02,2.27,6.97,2.53,6.91,2.78
		C6.69,3.59,6.27,4.29,5.63,4.86C4.81,5.61,3.82,5.99,2.7,6.02C2.41,6.03,2.13,6,1.85,5.96C1.56,5.91,1.28,5.84,1.01,5.73
		c-0.06-0.02-0.1-0.01-0.12,0.03C0.87,5.8,0.88,5.84,0.92,5.88C0.96,5.91,1,5.95,1.04,5.98C1.82,6.63,2.72,6.97,3.74,7
		c0.25,0.01,0.49-0.01,0.74-0.05c0.88-0.14,1.65-0.5,2.29-1.11C7.64,5,8.07,3.98,8.05,2.79c0-0.2-0.02-0.39-0.06-0.59
		C7.86,1.47,7.54,0.82,7.04,0.25z"/>
	<path d="M1.26,3.91C1.29,3.88,1.3,3.85,1.28,3.79c0-0.01,0-0.01-0.01-0.02c-0.15-0.4-0.19-0.82-0.13-1.24
		C1.23,1.98,1.47,1.5,1.87,1.09C1.9,1.06,1.92,1.03,1.92,0.98c0-0.14,0-0.29,0-0.43c0-0.14,0-0.28,0-0.43C1.92,0.03,1.89,0,1.79,0
		C1.5,0,1.21,0,0.91,0C0.86,0,0.83,0.01,0.79,0.05C0.3,0.51,0.04,1.07,0,1.72c-0.02,0.25,0.01,0.5,0.08,0.74
		C0.25,3.07,0.6,3.55,1.14,3.9C1.19,3.93,1.22,3.94,1.26,3.91z"/>
	<path d="M4.01,2.92c0.48-0.07,0.83-0.47,0.83-0.94c0-0.09,0-0.19,0-0.28c0-0.12,0-0.25,0-0.37c0-0.08,0.02-0.1,0.1-0.1
		c0.07,0,0.15,0,0.23,0c0.07,0,0.1-0.04,0.09-0.11c0-0.01,0-0.02-0.01-0.03c-0.09-0.37-0.25-0.7-0.49-1.01C4.71,0.02,4.66,0,4.59,0
		c-0.2,0-0.4,0-0.6,0c-0.02,0-0.04,0-0.07,0C3.88,0.02,3.85,0.04,3.85,0.09c0,0.02,0,0.04,0,0.06c0,0.3,0,0.6,0,0.9
		c0,0.12-0.02,0.24-0.08,0.36C3.61,1.74,3.35,1.92,2.98,1.97C2.9,1.98,2.88,2,2.88,2.08c0,0.01,0,0.02,0,0.03
		C2.96,2.63,3.47,3,4.01,2.92z"/>
	<path d="M42.66,4.7c-0.54,0.05-1.14-0.06-1.54-0.44c-0.39-0.35-0.53-0.88-0.56-1.38c0-0.73,0.01-1.46,0-2.19
		c-0.08-0.08-0.22-0.04-0.33-0.03c-0.24,0.06-0.38,0.3-0.37,0.54c0,0.61,0,1.23,0,1.84c0,0.37,0.03,0.75,0.16,1.11
		c0.13,0.34,0.36,0.65,0.68,0.85c0.44,0.27,0.99,0.32,1.51,0.26c0.48-0.06,0.95-0.29,1.22-0.69c-0.01-0.01-0.04-0.03-0.05-0.04
		C43.15,4.61,42.91,4.68,42.66,4.7z"/>
	<path d="M43.09,0.67c-0.22,0.06-0.36,0.28-0.35,0.5c0,0.69,0,1.38,0,2.06c0,0.23-0.04,0.46-0.13,0.67
		c0.03,0.01,0.07,0.03,0.11,0.02c0.22-0.04,0.41-0.17,0.53-0.36c0.14-0.22,0.18-0.49,0.19-0.74c0-0.71,0-1.42,0-2.13
		C43.33,0.63,43.2,0.64,43.09,0.67z"/>
	<path d="M22.62,4.71c-0.16,0-0.34-0.04-0.45-0.16c-0.1-0.1-0.14-0.24-0.14-0.37c0-1.12,0-2.24,0-3.37c0-0.05,0.01-0.11-0.04-0.15
		c-0.16-0.01-0.33,0.04-0.46,0.14c-0.14,0.12-0.2,0.3-0.2,0.48c0,1.12,0,2.24,0,3.36c0,0.15,0.05,0.31,0.16,0.43
		c0.12,0.12,0.3,0.19,0.47,0.19c0.8,0,1.6,0,2.39,0c0.14,0,0.29-0.05,0.39-0.14c0.1-0.11,0.17-0.28,0.11-0.42
		C24.11,4.71,23.36,4.71,22.62,4.71z"/>
	<path d="M29.04,4.6c-0.1-0.09-0.15-0.22-0.15-0.35c0-1.18,0-2.35,0-3.53c-0.08-0.08-0.22-0.04-0.33-0.02
		c-0.24,0.06-0.37,0.3-0.37,0.53c0,1.14,0,2.29,0,3.43c0,0.16,0.03,0.34,0.15,0.46c0.15,0.16,0.4,0.19,0.59,0.12
		c0.22-0.07,0.35-0.31,0.32-0.52C29.18,4.68,29.1,4.66,29.04,4.6z"/>
	<path d="M31.68,3.08c0.06,0.09,0.1,0.21,0.21,0.27c0.03-0.13,0.02-0.25,0.02-0.38c0-0.63,0-1.27,0-1.9c0-0.13,0.01-0.26-0.01-0.38
		c-0.13-0.01-0.27-0.02-0.39,0.04C31.32,0.8,31.22,1,31.22,1.19c0,0.38-0.01,0.76,0,1.14C31.37,2.59,31.53,2.83,31.68,3.08z"/>
	<path d="M36.29,4.24c0-1.18,0-2.35,0-3.53c-0.12-0.06-0.26-0.05-0.38-0.01c-0.21,0.07-0.33,0.28-0.33,0.49c0,1.19,0,2.37,0,3.56
		c0,0.14,0.06,0.29,0.16,0.39c0.15,0.14,0.38,0.16,0.57,0.1c0.22-0.07,0.35-0.3,0.33-0.52c-0.08-0.05-0.17-0.06-0.24-0.13
		C36.32,4.5,36.29,4.37,36.29,4.24z"/>
	<path d="M48.19,3.4c0.27,0.06,0.56,0.07,0.8,0.22c0.12,0.07,0.14,0.2,0.18,0.32c0.19-0.04,0.38-0.08,0.52-0.21
		c0.13-0.12,0.19-0.32,0.11-0.48c-0.08-0.19-0.3-0.27-0.49-0.32c-0.43-0.1-0.88-0.12-1.28-0.31c-0.3-0.13-0.57-0.35-0.69-0.66
		c-0.16-0.38-0.1-0.83,0.15-1.16c-0.04-0.03-0.09-0.04-0.13-0.01c-0.27,0.13-0.51,0.33-0.65,0.59c-0.26,0.47-0.19,1.09,0.19,1.48
		C47.24,3.19,47.72,3.33,48.19,3.4z"/>
	<path d="M15.89,1.6c0.53-0.17,1.14-0.03,1.53,0.36c0.18,0,0.37,0.01,0.55,0c0.01-0.01,0.03-0.03,0.04-0.03c0.01-0.18,0-0.36,0-0.54
		c-0.33-0.35-0.85-0.52-1.33-0.42c-0.38,0.07-0.73,0.3-0.93,0.62C15.8,1.61,15.84,1.63,15.89,1.6z"/>
	<path d="M48.28,1.51c0.2-0.01,0.41,0.04,0.59,0.13c0.19,0.08,0.33,0.25,0.54,0.28c0.31,0.04,0.6-0.25,0.58-0.54
		c-0.07-0.07-0.18-0.1-0.26-0.16c-0.3-0.22-0.68-0.31-1.05-0.27c-0.17,0.02-0.34,0.07-0.46,0.19c-0.09,0.09-0.13,0.21-0.11,0.34
		C48.15,1.53,48.23,1.51,48.28,1.51z"/>
	<path d="M24.72,1.07c-0.59,0-1.18,0-1.76,0c-0.01,0.01-0.03,0.03-0.04,0.04c-0.01,0.16-0.01,0.33,0,0.49
		c0.03,0.06,0.11,0.04,0.17,0.04c0.45-0.01,0.9,0.01,1.35-0.01c0.27-0.01,0.5-0.27,0.45-0.53C24.84,1.05,24.77,1.07,24.72,1.07z"/>
	<path d="M17.41,4.71c-0.66,0.1-1.36-0.07-1.89-0.47c-0.44-0.33-0.76-0.8-0.89-1.33c-0.12-0.48-0.08-1,0.1-1.46
		c-0.01-0.01-0.04-0.04-0.06-0.05c-0.49,0.48-0.74,1.18-0.65,1.85c0.06,0.56,0.35,1.08,0.78,1.45c0.41,0.35,0.95,0.56,1.49,0.57
		c0.63,0.02,1.27-0.22,1.72-0.66c-0.02-0.01-0.05-0.03-0.07-0.04C17.76,4.63,17.59,4.69,17.41,4.71z"/>
	<path d="M32.06,4.71c-0.26,0.01-0.46-0.18-0.58-0.38c-0.55-0.89-1.1-1.78-1.66-2.67c-0.02,0.01-0.05,0.04-0.06,0.05
		c0,0.46,0,0.93,0,1.39c0,0.05,0.01,0.09,0.04,0.13c0.34,0.54,0.67,1.09,1.01,1.63c0.11,0.18,0.27,0.34,0.49,0.39
		c0.22,0.05,0.46,0.04,0.65-0.07c0.17-0.09,0.28-0.26,0.31-0.44C32.21,4.68,32.12,4.72,32.06,4.71z"/>
	<path d="M17.94,3.01c-0.19-0.01-0.38,0-0.57,0c-0.16-0.01-0.3-0.1-0.39-0.22c-0.06-0.09-0.08-0.2-0.12-0.3
		c-0.15,0.02-0.29,0.08-0.39,0.19c-0.2,0.21-0.16,0.58,0.08,0.75c0.2,0.17,0.48,0.08,0.72,0.11c0.09,0.05,0.02,0.17,0.09,0.24
		c0.23-0.06,0.47-0.15,0.65-0.31c0.01-0.13,0.01-0.26,0-0.39C18.02,3.03,17.97,3,17.94,3.01z"/>
	<path d="M22.95,3.45c0.43,0.01,0.85,0,1.28,0c0.17,0.01,0.35-0.05,0.45-0.19c0.09-0.1,0.1-0.24,0.09-0.37
		c-0.62-0.01-1.24-0.01-1.85,0c0,0.17-0.01,0.35,0,0.52C22.92,3.43,22.94,3.44,22.95,3.45z"/>
	<path d="M49.95,4.51c-0.86,0.37-1.93,0.23-2.66-0.35c-0.06-0.05-0.11-0.13-0.13-0.2c-0.02-0.06-0.01-0.14-0.09-0.15
		c-0.37-0.09-0.73,0.33-0.6,0.67c0.07,0.21,0.28,0.32,0.45,0.43c0.63,0.37,1.41,0.46,2.11,0.29c0.38-0.1,0.75-0.31,0.97-0.63
		C49.99,4.55,49.96,4.52,49.95,4.51z"/>
</g>
</svg>
